<svg xmlns="http://www.w3.org/2000/svg" viewBox="0 0 200 200">
  <rect width="200" height="200" fill="#ffe4cd"/>
  <path d="M 60 30.72 A 80 80 0 0 1 140 30.72 L 124.25 86 L 100 72 Z" fill="#1e2a78"/>
  <path d="M 140 30.72 A 80 80 0 0 1 180 100 L 124.25 114 L 124.25 86 Z" fill="#312788"/>
  <path d="M 180 100 A 80 80 0 0 1 140 169.28 L 100 128 L 124.25 114 Z" fill="#482297"/>
  <path d="M 140 169.28 A 80 80 0 0 1 60 169.28 L 75.75 114 L 100 128 Z" fill="#5b21b6"/>
  <path d="M 60 169.28 A 80 80 0 0 1 20 100 L 75.75 86 L 75.75 114 Z" fill="#482297"/>
  <path d="M 20 100 A 80 80 0 0 1 60 30.72 L 100 72 L 75.75 86 Z" fill="#312788"/>
  <polygon points="124.25,114 100,128 75.75,114 75.75,86 100,72 124.25,86" fill="#000000"/>
</svg>
